<?xml version="1.0" standalone="no"?>
<!DOCTYPE svg PUBLIC "-//W3C//DTD SVG 20010904//EN"
 "http://www.w3.org/TR/2001/REC-SVG-20010904/DTD/svg10.dtd">
<svg version="1.0" xmlns="http://www.w3.org/2000/svg"
 width="280.000000pt" height="171.000000pt" viewBox="0 0 280.000000 171.000000"
 preserveAspectRatio="xMidYMid meet">
<metadata>
Created by potrace 1.10, written by Peter Selinger 2001-2011
</metadata>
<g transform="translate(0.000000,171.000000) scale(0.100000,-0.100000)"
fill="#000000" stroke="none">
<path d="M145 1600 c14 -47 58 -155 87 -212 15 -32 25 -58 20 -58 -4 0 -25 18
-47 40 -21 22 -40 38 -42 36 -6 -6 50 -126 91 -195 19 -33 33 -61 30 -61 -4 0
-24 14 -45 31 -21 17 -39 27 -39 22 0 -15 83 -155 129 -218 24 -33 98 -114
165 -180 108 -108 150 -140 401 -309 154 -104 324 -222 378 -263 97 -72 120
-83 132 -63 9 15 281 207 525 370 185 124 232 161 336 265 67 66 141 147 165
180 46 63 129 203 129 218 0 5 -18 -5 -39 -22 -21 -17 -41 -31 -45 -31 -3 0
11 28 30 61 41 69 97 189 91 195 -2 2 -21 -14 -42 -36 -22 -22 -43 -40 -47
-40 -5 0 5 26 20 58 29 57 73 164 87 212 5 17 -41 -23 -142 -121 -83 -80 -235
-221 -339 -314 -354 -316 -476 -451 -600 -661 -58 -98 -144 -287 -144 -316 0
-10 -4 -18 -10 -18 -5 0 -10 7 -10 16 0 28 -79 204 -136 302 -126 221 -219
325 -564 636 -135 122 -310 284 -389 361 -97 95 -141 132 -136 115z"/>
</g>
</svg>
